<?xml version="1.0" encoding="utf-8"?>
<!-- Generator: Adobe Illustrator 16.0.0, SVG Export Plug-In . SVG Version: 6.00 Build 0)  -->
<!DOCTYPE svg PUBLIC "-//W3C//DTD SVG 1.1//EN" "http://www.w3.org/Graphics/SVG/1.1/DTD/svg11.dtd">
<svg version="1.1" id="Calque_1" xmlns="http://www.w3.org/2000/svg" xmlns:xlink="http://www.w3.org/1999/xlink" x="0px" y="0px"
	 width="44px" height="44px" viewBox="0 0 44 44" style="enable-background:new 0 0 44 44;" xml:space="preserve">
<style type="text/css">
<![CDATA[
	.st0{fill:#FF7F00;}
	.st1{fill:#FFFFFF;}
]]>
</style>
<circle class="st1" cx="22" cy="22" r="22"/>
<path class="st0" d="M18,29.3c0.4-0.4,0.4-1,0-1.4L13.1,23h20.1c0.6,0,1-0.4,1-1c0-0.6-0.4-1-1-1H13.1l4.9-4.9c0.4-0.4,0.4-1,0-1.4
	c-0.4-0.4-1-0.4-1.4,0l-6.5,6.6c-0.2,0.2-0.3,0.5-0.3,0.7s0.1,0.5,0.3,0.7l6.6,6.6C17,29.7,17.6,29.7,18,29.3z"/>
</svg>
