<?xml version="1.0" encoding="utf-8"?>
<!-- Generator: Adobe Illustrator 16.0.0, SVG Export Plug-In . SVG Version: 6.00 Build 0)  -->
<!DOCTYPE svg PUBLIC "-//W3C//DTD SVG 1.1//EN" "http://www.w3.org/Graphics/SVG/1.1/DTD/svg11.dtd">
<svg version="1.1" id="Calque_1" xmlns="http://www.w3.org/2000/svg" xmlns:xlink="http://www.w3.org/1999/xlink" x="0px" y="0px"
	 width="48px" height="48px" viewBox="0 0 48 48" style="enable-background:new 0 0 48 48;" xml:space="preserve">
<style type="text/css">
<![CDATA[
	.st0{fill:#FF7F00;}
	.st1{fill-rule:evenodd;clip-rule:evenodd;fill:#FFFFFF;}
]]>
</style>
<circle class="st1" cx="24" cy="23.9" r="24"/>
<path class="st0" d="M28.3,15.9c-0.4,0.4-0.4,1.2,0,1.7l5.3,5.4h-22c-0.6,0-1.1,0.4-1.1,1s0.5,1,1.1,1h22l-5.3,5.3
	c-0.4,0.4-0.4,1.1,0,1.5s1.1,0.4,1.6,0l7.2-7.2c0.2-0.2,0.3-0.5,0.3-0.8s-0.1-0.6-0.3-0.8l-7.2-7.2C29.4,15.5,28.7,15.5,28.3,15.9z"
	/>
</svg>
