<?xml version="1.0" encoding="utf-8"?>
<!-- Generator: Adobe Illustrator 16.0.0, SVG Export Plug-In . SVG Version: 6.00 Build 0)  -->
<!DOCTYPE svg PUBLIC "-//W3C//DTD SVG 1.1//EN" "http://www.w3.org/Graphics/SVG/1.1/DTD/svg11.dtd">
<svg version="1.1" id="Calque_1" xmlns="http://www.w3.org/2000/svg" xmlns:xlink="http://www.w3.org/1999/xlink" x="0px" y="0px"
	 width="44px" height="44px" viewBox="0 0 44 44" style="enable-background:new 0 0 44 44;" xml:space="preserve">
<style type="text/css">
<![CDATA[
	.st0{fill:#FF7F00;}
	.st1{fill:#FFFFFF;}
]]>
</style>
<circle class="st1" cx="22" cy="22" r="22"/>
<path class="st0" d="M26,14.7c-0.4,0.4-0.4,1,0,1.4l4.9,4.9H10.8c-0.6,0-1,0.4-1,1c0,0.6,0.4,1,1,1h20.1L26,27.9
	c-0.4,0.4-0.4,1,0,1.4c0.4,0.4,1,0.4,1.4,0l6.5-6.6c0.2-0.2,0.3-0.5,0.3-0.7s-0.1-0.5-0.3-0.7l-6.6-6.6C27,14.3,26.4,14.3,26,14.7z"
	/>
</svg>
