<?xml version="1.0" encoding="utf-8"?>
<!-- Generator: Adobe Illustrator 16.0.0, SVG Export Plug-In . SVG Version: 6.00 Build 0)  -->
<!DOCTYPE svg PUBLIC "-//W3C//DTD SVG 1.1//EN" "http://www.w3.org/Graphics/SVG/1.1/DTD/svg11.dtd">
<svg version="1.1" id="Calque_1" xmlns="http://www.w3.org/2000/svg" xmlns:xlink="http://www.w3.org/1999/xlink" x="0px" y="0px"
	 width="41px" height="41px" viewBox="0 0 41 41" enable-background="new 0 0 41 41" xml:space="preserve">
<path fill-rule="evenodd" clip-rule="evenodd" fill="#FF7F00" d="M25.692,22.994c-0.669,0-1.281,0.238-1.758,0.635l-5.88-2.939
	c0.002-0.045,0.007-0.089,0.007-0.134c0-0.054-0.005-0.105-0.008-0.157l5.898-3.013c0.475,0.388,1.08,0.62,1.74,0.62
	c1.52,0,2.752-1.232,2.752-2.753S27.212,12.5,25.692,12.5c-1.521,0-2.754,1.232-2.754,2.753c0,0.053,0.006,0.104,0.009,0.157
	l-5.899,3.012c-0.475-0.387-1.08-0.619-1.739-0.619c-1.521,0-2.753,1.232-2.753,2.753s1.232,2.753,2.753,2.753
	c0.669,0,1.28-0.238,1.758-0.635l5.88,2.939c-0.002,0.045-0.008,0.089-0.008,0.134c0,1.521,1.232,2.753,2.754,2.753
	c1.52,0,2.752-1.232,2.752-2.753S27.212,22.994,25.692,22.994"/>
</svg>
