<?xml version="1.0" encoding="utf-8"?>
<!-- Generator: Adobe Illustrator 16.0.0, SVG Export Plug-In . SVG Version: 6.00 Build 0)  -->
<!DOCTYPE svg PUBLIC "-//W3C//DTD SVG 1.1//EN" "http://www.w3.org/Graphics/SVG/1.1/DTD/svg11.dtd">
<svg version="1.1" id="Calque_1" xmlns="http://www.w3.org/2000/svg" xmlns:xlink="http://www.w3.org/1999/xlink" x="0px" y="0px"
	 width="41px" height="41px" viewBox="0 0 41 41" enable-background="new 0 0 41 41" xml:space="preserve">
<path fill="none" stroke="#3D3B40" stroke-miterlimit="10" d="M20.475,40.5C9.429,40.484,0.471,31.525,0.5,20.443
	C0.529,9.417,9.477,0.477,20.546,0.5C31.583,0.523,40.539,9.486,40.5,20.578C40.46,31.586,31.527,40.508,20.475,40.5"/>
<path fill="#3D3B40" d="M28.877,15.797h-4.436v-2.353c0-0.482-0.393-0.872-0.873-0.872h-6.137c-0.48,0-0.871,0.39-0.871,0.872v2.353
	h-4.437c-0.481,0-0.872,0.391-0.872,0.873v10.885c0,0.48,0.391,0.872,0.872,0.872h16.752c0.48,0,0.872-0.392,0.872-0.872V16.67
	C29.749,16.188,29.357,15.797,28.877,15.797z M18.305,14.318h4.393v1.48h-4.393V14.318z M28.004,26.686H12.998v-9.141h15.006V26.686
	z"/>
</svg>
