<?xml version="1.0" encoding="utf-8"?>
<!-- Generator: Adobe Illustrator 16.0.0, SVG Export Plug-In . SVG Version: 6.00 Build 0)  -->
<!DOCTYPE svg PUBLIC "-//W3C//DTD SVG 1.1//EN" "http://www.w3.org/Graphics/SVG/1.1/DTD/svg11.dtd">
<svg version="1.1" id="Calque_1" xmlns="http://www.w3.org/2000/svg" xmlns:xlink="http://www.w3.org/1999/xlink" x="0px" y="0px"
	 width="41px" height="41px" viewBox="0 0 41 41" enable-background="new 0 0 41 41" xml:space="preserve">
<path fill="none" stroke="#3D3B40" stroke-miterlimit="10" d="M20.475,40.5C9.429,40.484,0.471,31.525,0.5,20.443
	C0.529,9.417,9.477,0.477,20.546,0.5C31.583,0.523,40.539,9.486,40.5,20.578C40.46,31.586,31.527,40.508,20.475,40.5"/>
<path fill="#3D3B40" d="M28.877,15.797h-4.436v-2.353c0-0.482-0.392-0.872-0.873-0.872h-6.137c-0.48,0-0.871,0.39-0.871,0.872v2.353
	h-4.437c-0.481,0-0.872,0.391-0.872,0.873v10.885c0,0.48,0.391,0.872,0.872,0.872h16.752c0.48,0,0.872-0.392,0.872-0.872V16.67
	C29.749,16.188,29.357,15.797,28.877,15.797z M18.305,15.798h4.393v-1.48h-4.393V15.798z M12.998,26.686h15.006v-9.141H12.998
	V26.686z"/>
<g>
	<defs>
		<circle id="SVGID_1_" cx="82" cy="20.5" r="20"/>
	</defs>
	<clipPath id="SVGID_2_">
		<use xlink:href="#SVGID_1_"  overflow="visible"/>
	</clipPath>
	<g clip-path="url(#SVGID_2_)">
		<defs>
			<rect id="SVGID_3_" x="-79" y="-706.5" width="320" height="1857"/>
		</defs>
		<clipPath id="SVGID_4_">
			<use xlink:href="#SVGID_3_"  overflow="visible"/>
		</clipPath>
		<rect x="57" y="-4.5" clip-path="url(#SVGID_4_)" fill="#FAF9F7" width="50" height="50"/>
	</g>
</g>
<g>
	<defs>
		<path id="SVGID_5_" d="M92.134,14.861c-0.76,0.327-1.519,0.531-2.278,0.613c0.857-0.515,1.438-1.241,1.739-2.18
			c-0.784,0.465-1.62,0.784-2.511,0.955C88.301,13.417,87.337,13,86.194,13c-1.094,0-2.027,0.386-2.799,1.157
			s-1.157,1.704-1.157,2.798c0,0.294,0.033,0.596,0.099,0.906c-1.617-0.082-3.134-0.488-4.55-1.219
			c-1.417-0.73-2.619-1.704-3.607-2.921c-0.359,0.612-0.538,1.278-0.538,1.997c0,0.677,0.159,1.306,0.478,1.886
			s0.747,1.049,1.285,1.408c-0.637-0.024-1.232-0.192-1.787-0.502v0.049c0,0.955,0.3,1.794,0.9,2.517
			c0.6,0.723,1.357,1.178,2.271,1.365c-0.344,0.09-0.69,0.135-1.041,0.135c-0.229,0-0.479-0.021-0.747-0.061
			c0.253,0.792,0.718,1.442,1.396,1.953c0.678,0.51,1.445,0.773,2.303,0.79c-1.438,1.126-3.074,1.689-4.91,1.689
			c-0.352,0-0.67-0.016-0.955-0.049c1.836,1.184,3.861,1.775,6.074,1.775c1.404,0,2.723-0.222,3.955-0.667s2.286-1.041,3.159-1.788
			c0.874-0.747,1.627-1.606,2.26-2.578s1.104-1.985,1.414-3.043c0.311-1.057,0.466-2.116,0.466-3.178c0-0.229-0.005-0.4-0.013-0.515
			C90.925,16.343,91.587,15.662,92.134,14.861z"/>
	</defs>
	<clipPath id="SVGID_6_">
		<use xlink:href="#SVGID_5_"  overflow="visible"/>
	</clipPath>
	<g clip-path="url(#SVGID_6_)">
		<defs>
			<rect id="SVGID_7_" x="-79" y="-706.5" width="320" height="1857"/>
		</defs>
		<clipPath id="SVGID_8_">
			<use xlink:href="#SVGID_7_"  overflow="visible"/>
		</clipPath>
		<rect x="67.834" y="8" clip-path="url(#SVGID_8_)" fill="#FF7F00" width="29.3" height="25.675"/>
	</g>
</g>
</svg>
