<?xml version="1.0" encoding="utf-8"?>
<!-- Generator: Adobe Illustrator 16.0.0, SVG Export Plug-In . SVG Version: 6.00 Build 0)  -->
<!DOCTYPE svg PUBLIC "-//W3C//DTD SVG 1.1//EN" "http://www.w3.org/Graphics/SVG/1.1/DTD/svg11.dtd">
<svg version="1.1" id="Calque_1" xmlns="http://www.w3.org/2000/svg" xmlns:xlink="http://www.w3.org/1999/xlink" x="0px" y="0px"
	 width="62px" height="38px" viewBox="0 0 62 38" style="enable-background:new 0 0 62 38;" xml:space="preserve">
<style type="text/css">
<![CDATA[
	.st0{clip-path:url(#SVGID_2_);}
	.st1{clip-path:url(#SVGID_4_);}
	.st2{clip-path:url(#SVGID_6_);}
]]>
</style>
<g>
	<defs>
		<path id="SVGID_1_" d="M32.7,11.3c0.4,0.2,0.7,0.4,1.2,0.4c0,0.3,0.1,0.6,0.4,0.8c0.5,0.4,1,0.6,1.6,0.6c0.6,0,1.2-0.2,1.8-0.6
			c2.2-1.4,4.3-5.3,3.6-8C41,3.1,39.8,2.1,38.2,2c-1.2-0.1-2.4,0.4-3.5,1.5c-1.5,1.5-2.6,3.8-2.4,5.6c0,0,0,0.1,0,0.2
			C32.1,9.7,31.9,10.7,32.7,11.3 M34.3,8.9c-0.1-1.2,0.7-3,1.8-4C36.5,4.5,37.2,4,37.9,4c0,0,0.1,0,0.1,0c1,0.1,1.2,0.5,1.3,1
			c0.3,1.2-0.4,3.2-1.5,4.6c0.2-0.4,0-0.9-0.3-1.1c-0.4-0.4-1.1-0.3-1.5,0.1c-0.5,0.5-1.3,1-1.8,1.1C34.3,9.4,34.3,9.2,34.3,8.9"/>
	</defs>
	<use xlink:href="#SVGID_1_"  style="overflow:visible;fill-rule:evenodd;clip-rule:evenodd;"/>
	<clipPath id="SVGID_2_">
		<use xlink:href="#SVGID_1_"  style="overflow:visible;"/>
	</clipPath>
	<rect x="27.1" y="-3" class="st0" width="19.3" height="21"/>
</g>
<g>
	<defs>
		<path id="SVGID_3_" d="M60.6,10.4c-1.2-1-2.5-1.4-3.8-1.2c-2.6,0.5-4.5,3.5-5.7,5.7c-0.3,0.5-0.1,1.1,0.4,1.4
			c0.5,0.3,1.1,0.1,1.4-0.4c1.5-2.8,2.9-4.4,4.2-4.6c0.6-0.1,1.3,0.1,2,0.7c0.6,0.5,1.1,1.3,0.3,3.1c-1.4,3.3-5.8,8.1-9.5,7.8
			c-2-0.1-2.4-1.1-2.6-1.8c-0.3-1.7,0.6-4.6,2.5-7.7c1.9-3.1,4.1-5.3,5.2-5.8c0.5-0.2,0.7-0.8,0.5-1.3s-0.8-0.8-1.3-0.6
			c-0.7,0.2-1.5,0.5-2.2,0.7c-0.2,0.1-0.4,0.1-0.6,0.2c0,0,0,0,0,0c0-0.3,0-0.6,0-1c0.1-1.4,0.2-3.2-0.9-4.4
			c-0.5-0.6-1.6-1.5-3.1-1.1c-1.9,0.5-3,2.7-3.3,4.1c-0.3,1.1-0.5,2.1-0.4,3.1c-1.3,0-2.5,0.6-3.5,1.7c-1.5,1.6-2.5,4.3-3,6.8
			c0-0.2,0-0.5,0-0.7c0-0.6-0.5-1-1-1c-0.6,0-1,0.4-1.1,1c0,0.3,0,0.6,0,0.8c0,0.7,0,1.5-0.3,1.9c-0.4,0.5-1.8,0.8-2.7,0.9
			c-0.3,0.1-0.7,0.1-1,0.2l-0.1,0c-0.5,0.1-1.1,0.3-1.6,0.4c2.1-2.5,4-5.3,3.1-7.6c-0.4-1-1.7-1.9-3.7-3.1c-0.6-0.4-1.2-0.8-1.5-1
			c-0.3-0.2-0.7-0.3-1-0.2C26.3,7.5,26,7.8,26,8.2c-0.6,3.1-0.7,6.3-0.6,9.5c-0.6,0-1.4,0.1-2.3,0.4c-0.2,0.1-0.3,0.1-0.5,0.2
			c0.3-0.8,0.6-1.6,0.8-2.4c0.4-1.9,0.2-3.7-0.5-5.3C22,9,20.8,8.5,20,8.4c-1.1-0.2-2.4,0.1-3.8,0.9c-1.4,0.8-2.4,1.8-3,2.3
			c-2.9,2.9-3.8,7.6-2.3,11.1c-0.8,0.1-1.6,0.3-2.4,0.5c-0.2,0-0.3,0.1-0.5,0.1C8,23.1,8,23,7.9,22.8c0.2-1.3,0.3-2.7-0.1-3.8
			c-0.1-0.4-0.5-0.7-0.9-0.7c-0.4,0-0.8,0.2-1,0.6c-0.5,1.2-0.5,2.6-0.1,4c0,0.3-0.1,0.5-0.1,0.8C4,23.9,2.4,24.1,1,24.1
			c-0.6,0-1,0.5-1,1.1c0,0.6,0.5,1,1,1c0,0,0,0,0.1,0c1.3-0.1,2.7-0.2,4.1-0.3c-0.6,2.7-2.5,9.4-3.3,10.5c-0.3,0.5-0.2,1.1,0.3,1.4
			C2.3,38,2.5,38,2.7,38c0.3,0,0.7-0.2,0.9-0.4c1.1-1.6,2.9-8.2,3.6-11c0.2,0.4,0.4,0.9,0.6,1.2l0.2,0.3c0.2,0.4,0.6,0.9,0.9,1.4
			c0.5,0.7,1.3,1.8,1.3,2.3c0,0.6,0.5,1,1.1,1c0.6,0,1-0.5,1-1.1c0-1.1-0.9-2.3-1.7-3.4c-0.3-0.5-0.6-0.9-0.8-1.2l-0.2-0.3
			c-0.2-0.5-0.5-1-0.8-1.7c0.1,0,0.1,0,0.2,0c0.9-0.2,1.8-0.5,2.7-0.5c0.1,0,0.3-0.1,0.4-0.1c0.6,0.7,1.4,1.1,2,1.5
			c0.6,0.4,1.1,0.7,1.6,1.1c0.6,0.5,0.9,0.9,0.9,1.5v0.6c-0.9,0.3-1.8,0.5-2.7,0.5c-0.6,0-1.1,0.5-1.1,1c0,0.6,0.5,1,1,1
			c0,0,0.1,0,0.1,0c3.2,0,6-1.8,7.8-3.3c0,0,2-1.8,3.6-3.8c0.1,1.8,0.1,3.6,0.1,5.3c0,0.6,0.5,1,1,1c0.6,0,1-0.5,1-1v-8
			c1.3-0.6,2.7-0.9,4.1-1.3l0.1,0c0.2-0.1,0.5-0.1,0.8-0.2c0.8-0.1,1.8-0.3,2.6-0.7c0,1.4,0,2.8,0,4.2c0,0.6,0.5,1,1,1s1-0.5,1-1
			c0-1.1,0-2.2,0-3.4c0.1,0.2,0.3,0.3,0.5,0.3c0.5,0.2,1,0.3,1.5,0.3c2.3,0,4.6-1.8,6.2-3.7c-0.4,1.3-0.6,2.7-0.3,3.9
			c0.6,2.8,3.1,3.4,4.5,3.5c0.1,0,0.3,0,0.4,0c2.6,0,5.1-1.6,6.6-3c2-1.7,3.7-4,4.5-6.1C62.4,13.6,62.1,11.7,60.6,10.4 M27.8,10.1
			c0.1,0.1,0.2,0.1,0.3,0.2c0.8,0.5,2.6,1.6,2.8,2.1c0.1,0.3,0.2,1.1-0.9,2.8c-0.6,1-1.5,2.1-2.3,3.1v-6.4c0-0.2,0-0.3-0.1-0.5
			C27.7,11,27.7,10.6,27.8,10.1 M17.3,13c-0.6,0.2-0.9,0.7-0.7,1.3c0.5,1.9,0.4,4.3,0.2,6.7c0,0.6-0.1,1.2-0.1,1.8
			c-0.3,0.5-0.5,0.9-0.5,1.3c-0.1,0.4,0.1,0.8,0.5,1c0,0,0,0,0,0v0.1c-0.5-0.4-0.9-0.7-1.4-0.9c-0.9-0.6-1.7-1.1-2.3-2.1
			c-0.7-1.4-1-3.1-0.6-4.8c0.3-1.7,1.1-3.2,2.3-4.4c1.3-1.3,3.3-2.7,4.7-2.7c0.1,0,0.2,0,0.3,0c0.3,0.1,0.8,0.2,1.2,1.1
			c1.5,3.2-0.6,6.9-1.3,7.9c-0.2,0.3-0.4,0.6-0.6,0.9c0.1-2.3,0.2-4.6-0.4-6.6C18.4,13.2,17.9,12.9,17.3,13 M20.6,27
			c-0.5,0.4-1.1,0.9-1.8,1.3v-4.1c0.6-0.7,1.1-1.5,1.6-2.2c1-0.8,2.1-1.5,3.3-1.9c0.7-0.2,1.3-0.3,1.7-0.3c0,0.5,0,1,0,1.5
			c-0.3,0.5-0.8,1.3-1.6,2.3C22.4,25.3,20.9,26.7,20.6,27 M46.3,4.6c0.3-1.2,1.1-2.4,1.8-2.5c0,0,0.1,0,0.2,0c0.2,0,0.5,0.1,0.8,0.5
			c0.5,0.5,0.4,1.8,0.3,2.9c0,0.4,0,0.8,0,1.1c0,0.2,0.1,0.5,0.2,0.6c-0.9,0.2-1.7,0.4-2.6,0.5c-0.5,0-0.8,0-0.9-0.2
			C45.8,7.1,46.2,5.3,46.3,4.6 M47.2,13.4c-0.5-0.3-1.1-0.1-1.4,0.4c-1.1,2.1-4.2,5.6-6.6,5.4c-0.1-2.5,0.7-6.9,2.7-8.9
			c0.5-0.5,0.9-0.8,1.4-0.9c0,0.3-0.1,0.5-0.2,0.8c-0.3,0.5,0,1.1,0.5,1.4c0.5,0.3,1.1,0,1.4-0.5c0.2-0.5,0.4-1,0.4-1.5
			c0.5,0.2,1.1,0.3,1.8,0.3c1.1-0.1,2.1-0.3,3.2-0.6c-0.8,1-1.6,2-2.3,3.2c-0.2,0.4-0.5,0.8-0.7,1.2C47.4,13.5,47.3,13.4,47.2,13.4"
			/>
	</defs>
	<use xlink:href="#SVGID_3_"  style="overflow:visible;fill-rule:evenodd;clip-rule:evenodd;"/>
	<clipPath id="SVGID_4_">
		<use xlink:href="#SVGID_3_"  style="overflow:visible;"/>
	</clipPath>
	<rect x="-5" y="-4.9" class="st1" width="72" height="47.9"/>
</g>
<g>
	<defs>
		<path id="SVGID_5_" d="M46,25.2L46,25.2c-2.1,0.1-4.1-0.2-6.4-0.7c-0.4-0.1-0.7,0.1-1,0.3c-0.3,0.3-0.3,0.6-0.2,1
			c0.1,0.4,0.3,0.9,0.4,1.4c0.1,0.4,0.3,0.8,0.4,1.3c-3.8,0.3-7.3,2.2-10.7,4c-2,1.1-3.9,2.1-5.7,2.7c-0.5,0.2-0.8,0.8-0.6,1.3
			c0.1,0.4,0.6,0.7,1,0.7c0.1,0,0.2,0,0.3-0.1c2-0.7,4-1.8,6.1-2.9c3.3-1.8,6.6-3.6,10.2-3.8c0.1,0.5,0.2,1.1,0.1,1.5
			c-0.2,0.2-0.4,0.3-0.6,0.5c-0.5,0.3-0.6,1-0.3,1.4c0.1,0.2,0.4,0.3,0.6,0.4c0.1,0.2,0.2,0.3,0.4,0.4c0.2,0.1,0.3,0.1,0.5,0.1
			c0.4,0,0.7-0.2,0.9-0.6c0.2-0.4,0.4-0.9,0.5-1.3c0.5-0.6,1-1.2,1.5-1.8c0.3-0.5,0.7-0.9,1-1.3c0.2-0.2,0.4-0.5,0.7-0.7
			c0.8-0.7,1.6-1.6,1.9-2.6c0.1-0.3,0-0.7-0.2-0.9C46.7,25.3,46.4,25.2,46,25.2 M43.7,27.6c-0.3,0.3-0.6,0.6-0.9,0.9
			c-0.4,0.4-0.7,0.9-1,1.3c0,0,0,0,0,0c0-0.1,0.1-0.2,0.1-0.3c0-0.3-0.1-0.6-0.3-0.8c-0.2-0.6-0.4-1.3-0.6-1.9
			c1.1,0.2,2.1,0.3,3.2,0.4C44,27.4,43.8,27.5,43.7,27.6"/>
	</defs>
	<use xlink:href="#SVGID_5_"  style="overflow:visible;fill-rule:evenodd;clip-rule:evenodd;"/>
	<clipPath id="SVGID_6_">
		<use xlink:href="#SVGID_5_"  style="overflow:visible;"/>
	</clipPath>
	<rect x="17.2" y="19.5" class="st2" width="34.9" height="22.7"/>
</g>
</svg>
