<?xml version="1.0" encoding="utf-8"?>
<!-- Generator: Adobe Illustrator 16.0.0, SVG Export Plug-In . SVG Version: 6.00 Build 0)  -->
<!DOCTYPE svg PUBLIC "-//W3C//DTD SVG 1.1//EN" "http://www.w3.org/Graphics/SVG/1.1/DTD/svg11.dtd">
<svg version="1.1" id="Calque_1" xmlns="http://www.w3.org/2000/svg" xmlns:xlink="http://www.w3.org/1999/xlink" x="0px" y="0px"
	 width="62px" height="38px" viewBox="0 0 62 38" enable-background="new 0 0 62 38" xml:space="preserve">
<g>
	<path d="M60.656,10.399c-1.199-1-2.5-1.4-3.8-1.2c-2.6,0.5-4.5,3.5-5.7,5.7c-0.3,0.5-0.1,1.1,0.4,1.399s1.1,0.101,1.4-0.399
		c1.5-2.801,2.899-4.4,4.199-4.601c0.601-0.1,1.301,0.101,2,0.7c0.601,0.5,1.101,1.3,0.301,3.1c-1.4,3.301-5.801,8.101-9.5,7.802
		c-2-0.102-2.4-1.102-2.601-1.801c-0.3-1.7,0.601-4.601,2.5-7.7c1.9-3.101,4.101-5.301,5.2-5.801c0.5-0.2,0.7-0.8,0.5-1.3
		s-0.8-0.8-1.3-0.6c-0.7,0.2-1.5,0.5-2.2,0.7c-0.2,0.1-0.4,0.1-0.6,0.2c0-0.3,0-0.6,0-1c0.1-1.4,0.199-3.2-0.9-4.4
		c-0.5-0.6-1.6-1.5-3.1-1.1c-1.9,0.5-3,2.7-3.301,4.1c-0.3,1.1-0.5,2.1-0.399,3.1c-1.033,0-1.998,0.394-2.855,1.102
		c0.533-1.325,0.76-2.727,0.455-3.901c-0.3-1.4-1.5-2.4-3.1-2.5c-1.2-0.1-2.4,0.4-3.5,1.5c-1.5,1.5-2.601,3.8-2.4,5.6
		c0,0,0,0.101,0,0.2c-0.2,0.4-0.399,1.4,0.4,2c0.399,0.2,0.7,0.4,1.2,0.4c0,0.3,0.1,0.6,0.399,0.8c0.5,0.4,1,0.6,1.601,0.6
		c0.6,0,1.199-0.199,1.8-0.6c0.22-0.14,0.437-0.311,0.651-0.496c-0.512,1.204-0.897,2.525-1.151,3.796c0-0.2,0-0.5,0-0.7
		c0-0.6-0.5-1-1-1c-0.601,0-1,0.4-1.101,1c0,0.301,0,0.601,0,0.801c0,0.699,0,1.5-0.3,1.899c-0.399,0.5-1.8,0.8-2.7,0.9
		c-0.3,0.1-0.7,0.1-1,0.2h-0.1c-0.5,0.1-1.1,0.3-1.6,0.399c2.1-2.5,4-5.3,3.1-7.6c-0.4-1-1.7-1.9-3.7-3.101
		c-0.6-0.399-1.2-0.8-1.5-1c-0.3-0.2-0.7-0.3-1-0.2c0,0.1-0.3,0.4-0.3,0.8c-0.6,3.1-0.7,6.3-0.6,9.5c-0.6,0-1.4,0.1-2.3,0.399
		c-0.2,0.101-0.3,0.101-0.5,0.2c0.3-0.8,0.6-1.6,0.8-2.399c0.4-1.9,0.2-3.7-0.5-5.301c-0.9-1.6-2.1-2.1-2.9-2.199
		c-1.1-0.2-2.4,0.1-3.8,0.899c-1.4,0.8-2.4,1.8-3,2.3c-2.9,2.9-3.8,7.601-2.3,11.101c-0.8,0.1-1.6,0.301-2.4,0.5
		c-0.2,0-0.3,0.1-0.5,0.1c0-0.199,0-0.299-0.1-0.5c0.2-1.299,0.3-2.699-0.1-3.8c-0.1-0.4-0.5-0.7-0.9-0.7s-0.8,0.2-1,0.601
		c-0.5,1.2-0.5,2.601-0.1,4.001c0,0.299-0.1,0.5-0.1,0.799c-1.7,0.201-3.3,0.4-4.7,0.4c-0.6,0-1,0.5-1,1.1s0.5,1,1,1c0,0,0,0,0.1,0
		c1.3-0.1,2.7-0.199,4.1-0.299c-0.6,2.699-2.5,9.398-3.3,10.5c-0.3,0.5-0.2,1.1,0.3,1.398C2.356,38,2.557,38,2.757,38
		c0.3,0,0.7-0.201,0.9-0.4c1.1-1.6,2.9-8.199,3.6-11c0.2,0.4,0.4,0.9,0.6,1.199l0.2,0.301c0.2,0.4,0.6,0.9,0.9,1.4
		c0.5,0.699,1.3,1.799,1.3,2.299c0,0.602,0.5,1,1.1,1c0.6,0,1-0.5,1-1.1c0-1.1-0.9-2.299-1.7-3.4c-0.3-0.5-0.6-0.898-0.8-1.199
		l-0.2-0.301c-0.2-0.5-0.5-1-0.8-1.699c0.1,0,0.1,0,0.2,0c0.9-0.199,1.8-0.5,2.7-0.5c0.1,0,0.3-0.1,0.4-0.1c0.6,0.699,1.4,1.1,2,1.5
		s1.1,0.699,1.6,1.1c0.6,0.5,0.9,0.9,0.9,1.5v0.6c-0.9,0.301-1.8,0.5-2.7,0.5c-0.6,0-1.1,0.5-1.1,1c0,0.6,0.5,1,1,1h0.1
		c3.2,0,6-1.799,7.8-3.299c0,0,2-1.801,3.6-3.801c0.1,1.801,0.1,3.6,0.1,5.301c0,0.6,0.5,1,1,1c0.6,0,1-0.5,1-1v-8
		c1.3-0.602,2.7-0.9,4.1-1.301h0.1c0.2-0.1,0.5-0.1,0.801-0.199c0.8-0.102,1.8-0.301,2.6-0.701c0,1.4,0,2.801,0,4.201
		c0,0.6,0.5,1,1,1s1-0.5,1-1c0-1.102,0-2.201,0-3.4c0.1,0.199,0.3,0.299,0.5,0.299c0.5,0.201,1,0.301,1.5,0.301
		c2.3,0,4.6-1.801,6.2-3.7c-0.4,1.3-0.601,2.7-0.3,3.899c0.6,2.801,3.1,3.4,4.5,3.5c0.1,0,0.3,0,0.399,0c2.601,0,5.101-1.6,6.601-3
		c2-1.699,3.699-4,4.5-6.1C62.457,13.599,62.156,11.699,60.656,10.399z M17.356,12.999c-0.6,0.2-0.9,0.7-0.7,1.3
		c0.5,1.9,0.4,4.3,0.2,6.701c0,0.6-0.1,1.199-0.1,1.799c-0.3,0.5-0.5,0.9-0.5,1.301c-0.1,0.4,0.1,0.801,0.5,1v0.1
		c-0.5-0.4-0.9-0.699-1.4-0.9c-0.9-0.6-1.7-1.1-2.3-2.1c-0.7-1.4-1-3.101-0.6-4.8c0.3-1.7,1.1-3.2,2.3-4.4c1.3-1.3,3.3-2.7,4.7-2.7
		c0.1,0,0.2,0,0.3,0c0.3,0.101,0.8,0.2,1.2,1.101c1.5,3.199-0.6,6.899-1.3,7.899c-0.2,0.301-0.4,0.602-0.6,0.9
		c0.1-2.3,0.2-4.601-0.4-6.601C18.457,13.199,17.957,12.899,17.356,12.999z M25.457,21.299c-0.3,0.5-0.8,1.301-1.6,2.301
		c-1.4,1.699-2.9,3.1-3.2,3.4c-0.5,0.4-1.1,0.9-1.8,1.299v-4.1c0.6-0.699,1.1-1.5,1.6-2.199c1-0.801,2.1-1.5,3.3-1.9
		c0.7-0.199,1.3-0.301,1.7-0.301C25.457,20.299,25.457,20.799,25.457,21.299z M27.657,11.399c0.1-0.4,0.1-0.801,0.2-1.301
		c0.1,0.101,0.2,0.101,0.3,0.2c0.8,0.5,2.6,1.601,2.8,2.101c0.1,0.3,0.2,1.1-0.9,2.8c-0.6,1-1.5,2.1-2.3,3.1v-6.399
		C27.757,11.699,27.757,11.599,27.657,11.399z M46.356,4.599c0.3-1.2,1.101-2.4,1.8-2.5c0,0,0.101,0,0.2,0c0.2,0,0.5,0.1,0.8,0.5
		c0.5,0.5,0.4,1.8,0.301,2.9c0,0.4,0,0.8,0,1.1c0,0.2,0.1,0.5,0.199,0.6c-0.899,0.2-1.699,0.399-2.6,0.5c-0.5,0-0.8,0-0.9-0.2
		C45.856,7.099,46.257,5.299,46.356,4.599z M37.557,8.499c-0.4-0.4-1.1-0.3-1.5,0.1c-0.5,0.5-1.3,1-1.8,1.101
		c0.1-0.3,0.1-0.5,0.1-0.8c-0.1-1.2,0.7-3,1.8-4c0.4-0.4,1.101-0.9,1.801-0.9h0.1c1,0.1,1.2,0.5,1.3,1c0.3,1.2-0.399,3.2-1.5,4.6
		C38.057,9.199,37.856,8.699,37.557,8.499z M45.856,13.799c-1.1,2.101-4.2,5.601-6.6,5.4c-0.101-2.5,0.7-6.9,2.7-8.9
		c0.5-0.5,0.899-0.8,1.399-0.899c0,0.3-0.1,0.5-0.2,0.8c-0.3,0.5,0,1.1,0.5,1.399c0.5,0.301,1.101,0,1.4-0.5c0.2-0.5,0.4-1,0.4-1.5
		c0.5,0.2,1.1,0.301,1.8,0.301c1.1-0.101,2.1-0.301,3.2-0.601c-0.801,1-1.601,2-2.301,3.2c-0.199,0.4-0.5,0.8-0.699,1.2
		c0-0.2-0.101-0.3-0.2-0.3C46.757,13.099,46.156,13.299,45.856,13.799z"/>
	<path d="M46.057,25.199c-2.1,0.1-4.1-0.199-6.4-0.699c-0.399-0.1-0.699,0.1-1,0.299c-0.3,0.301-0.3,0.602-0.199,1
		c0.1,0.4,0.3,0.9,0.399,1.4c0.101,0.4,0.3,0.801,0.4,1.301c-3.8,0.299-7.3,2.199-10.7,4c-2,1.1-3.9,2.1-5.7,2.699
		c-0.5,0.201-0.8,0.801-0.6,1.301c0.1,0.4,0.6,0.699,1,0.699c0.1,0,0.2,0,0.3-0.1c2-0.699,4-1.801,6.1-2.9
		c3.3-1.799,6.6-3.6,10.2-3.799c0.101,0.5,0.2,1.1,0.101,1.5c-0.2,0.199-0.4,0.299-0.601,0.5c-0.5,0.299-0.6,1-0.3,1.398
		c0.1,0.201,0.4,0.301,0.6,0.4c0.101,0.201,0.2,0.301,0.4,0.4s0.3,0.1,0.5,0.1c0.4,0,0.7-0.199,0.9-0.6
		c0.199-0.4,0.399-0.9,0.5-1.301c0.5-0.6,1-1.199,1.5-1.799c0.3-0.5,0.699-0.9,1-1.301c0.199-0.199,0.399-0.5,0.699-0.699
		c0.801-0.701,1.601-1.6,1.9-2.6c0.1-0.301,0-0.701-0.2-0.9C46.757,25.299,46.457,25.199,46.057,25.199z M43.757,27.6
		c-0.3,0.301-0.601,0.6-0.9,0.9c-0.399,0.4-0.7,0.9-1,1.299c0-0.1,0.101-0.199,0.101-0.299c0-0.301-0.101-0.6-0.301-0.801
		c-0.199-0.6-0.399-1.299-0.6-1.9c1.1,0.201,2.1,0.301,3.2,0.4C44.057,27.4,43.856,27.5,43.757,27.6z"/>
</g>
</svg>
