<?xml version="1.0" encoding="utf-8"?>
<!-- Generator: Adobe Illustrator 16.0.0, SVG Export Plug-In . SVG Version: 6.00 Build 0)  -->
<!DOCTYPE svg PUBLIC "-//W3C//DTD SVG 1.1//EN" "http://www.w3.org/Graphics/SVG/1.1/DTD/svg11.dtd">
<svg version="1.1" id="Calque_1" xmlns="http://www.w3.org/2000/svg" xmlns:xlink="http://www.w3.org/1999/xlink" x="0px" y="0px"
	 width="41px" height="41px" viewBox="0 0 41 41" enable-background="new 0 0 41 41" xml:space="preserve">
<g>
	<path fill-rule="evenodd" clip-rule="evenodd" d="M21.171,17.562c-0.497-0.203-1.04-0.317-1.61-0.317
		c-2.344,0-4.242,1.889-4.242,4.221c0,2.331,1.898,4.22,4.242,4.22c2.343,0,4.242-1.889,4.242-4.22c0-0.631-0.143-1.227-0.392-1.764
		l-2.552,2.538c-0.293,0.291-0.682,0.452-1.098,0.452c-0.414,0-0.805-0.161-1.098-0.452c-0.293-0.292-0.455-0.68-0.455-1.093
		c0-0.412,0.162-0.801,0.455-1.094L21.171,17.562z"/>
	<path fill-rule="evenodd" clip-rule="evenodd" d="M26.571,12.188c-1.953-1.465-4.382-2.335-7.011-2.335
		c-6.436,0-11.67,5.209-11.67,11.613c0,6.401,5.234,11.612,11.67,11.612s11.671-5.211,11.671-11.612c0-2.676-0.916-5.142-2.45-7.107
		l-0.914,0.91c1.305,1.728,2.08,3.874,2.08,6.198c0,5.698-4.66,10.335-10.387,10.335c-5.729,0-10.387-4.637-10.387-10.335
		c0-5.699,4.66-10.336,10.387-10.336c2.274,0,4.379,0.733,6.092,1.972L26.571,12.188z"/>
	<path fill-rule="evenodd" clip-rule="evenodd" d="M33.867,9.65c-0.142,0-0.283-0.012-0.423-0.035l-0.438,0.438
		c2.615,3.085,4.197,7.072,4.197,11.424c0,9.757-7.938,17.694-17.694,17.694c-9.756,0-17.693-7.938-17.693-17.694
		S9.754,3.782,19.51,3.782c4.292,0,8.231,1.537,11.299,4.088l0.445-0.446c-0.046-0.275-0.041-0.556,0.003-0.833
		c-3.233-2.558-7.312-4.09-11.747-4.09c-10.463,0-18.975,8.512-18.975,18.976c0,10.461,8.512,18.973,18.975,18.973
		c10.464,0,18.975-8.512,18.975-18.974c0-4.488-1.568-8.614-4.183-11.866C34.158,9.635,34.013,9.65,33.867,9.65z"/>
	<path fill-rule="evenodd" clip-rule="evenodd" d="M40.269,0.744c-0.26-0.259-0.683-0.259-0.942,0l-1.246,1.24l-0.395-0.393
		c-1.141-1.135-3.073-0.751-3.689,0.732L32.324,6.35c-0.198,0.477-0.17,0.952,0.005,1.356L19.291,20.68
		c-0.26,0.258-0.26,0.679,0,0.938c0.131,0.13,0.301,0.194,0.471,0.194c0.172,0,0.342-0.064,0.473-0.194L33.272,8.644
		c0.406,0.173,0.884,0.202,1.362,0.005l4.048-1.664c1.49-0.613,1.876-2.536,0.735-3.671l-0.395-0.393l1.246-1.24
		C40.529,1.423,40.529,1.003,40.269,0.744z"/>
</g>
</svg>
