<?xml version="1.0" encoding="utf-8"?>
<!-- Generator: Adobe Illustrator 16.0.0, SVG Export Plug-In . SVG Version: 6.00 Build 0)  -->
<!DOCTYPE svg PUBLIC "-//W3C//DTD SVG 1.1//EN" "http://www.w3.org/Graphics/SVG/1.1/DTD/svg11.dtd">
<svg version="1.1" id="Calque_1" xmlns="http://www.w3.org/2000/svg" xmlns:xlink="http://www.w3.org/1999/xlink" x="0px" y="0px"
	 width="41px" height="41px" viewBox="0 0 41 41" enable-background="new 0 0 41 41" xml:space="preserve">
<circle fill="#FFFFFF" cx="20.5" cy="20.5" r="20"/>
<path fill-rule="evenodd" clip-rule="evenodd" fill="#FF7F00" d="M17.27,29.83c-0.771-0.197-1.359-0.496-1.359-0.496
	c-0.031-0.803-0.006-1.766,0.201-2.641c0.221-0.934,1.48-6.266,1.48-6.266s-0.367-0.733-0.367-1.819
	c0-1.704,0.986-2.978,2.217-2.978c1.045,0,1.551,0.786,1.551,1.728c0,1.051-0.67,2.624-1.016,4.082
	c-0.287,1.219,0.611,2.215,1.814,2.215c2.18,0,3.648-2.799,3.648-6.115c0-2.521-1.699-4.407-4.785-4.407
	c-3.488,0-5.662,2.602-5.662,5.508c0,1.001,0.296,1.708,0.758,2.255c0.213,0.251,0.242,0.353,0.165,0.642
	c-0.054,0.211-0.183,0.721-0.233,0.922c-0.077,0.291-0.312,0.396-0.576,0.289c-1.607-0.656-2.355-2.417-2.355-4.395
	c0-3.267,2.756-7.184,8.22-7.184c4.391,0,7.28,3.178,7.28,6.587c0,4.511-2.508,7.882-6.205,7.882c-1.242,0-2.41-0.672-2.809-1.434
	c0,0-0.67,2.65-0.811,3.16C18.182,28.252,17.705,29.139,17.27,29.83"/>
</svg>
