<?xml version="1.0" encoding="utf-8"?>
<!-- Generator: Adobe Illustrator 16.0.0, SVG Export Plug-In . SVG Version: 6.00 Build 0)  -->
<!DOCTYPE svg PUBLIC "-//W3C//DTD SVG 1.1//EN" "http://www.w3.org/Graphics/SVG/1.1/DTD/svg11.dtd">
<svg version="1.1" id="Calque_1" xmlns="http://www.w3.org/2000/svg" xmlns:xlink="http://www.w3.org/1999/xlink" x="0px" y="0px"
	 width="41px" height="41px" viewBox="0 0 41 41" enable-background="new 0 0 41 41" xml:space="preserve">
<g>
	<path fill="#3D3B40" d="M38.498,9.713c-0.001-0.049-0.004-0.099-0.01-0.147c-0.002-0.012-0.002-0.023-0.004-0.036
		c-0.006-0.053-0.016-0.105-0.028-0.158c-0.001-0.004-0.002-0.008-0.003-0.013c-0.012-0.048-0.025-0.096-0.044-0.143
		c-0.002-0.011-0.006-0.021-0.01-0.031c-0.02-0.051-0.041-0.099-0.063-0.146c-0.003-0.005-0.006-0.01-0.009-0.016
		c-0.022-0.042-0.046-0.083-0.071-0.124c-0.007-0.01-0.014-0.02-0.02-0.03c-0.029-0.043-0.062-0.085-0.096-0.125
		c-0.004-0.006-0.01-0.011-0.015-0.017c-0.031-0.037-0.064-0.071-0.1-0.104c-0.008-0.008-0.015-0.015-0.021-0.022
		c-0.039-0.036-0.081-0.071-0.124-0.103c-0.002-0.002-0.004-0.003-0.006-0.005c-0.01-0.007-0.02-0.012-0.027-0.018
		c-0.021-0.015-0.043-0.03-0.065-0.044c-0.025-0.017-0.053-0.032-0.079-0.046c-0.002-0.002-0.006-0.003-0.008-0.005
		c-0.104-0.057-0.204-0.096-0.301-0.124L20.99,2.583c-0.318-0.109-0.663-0.109-0.98,0L3.605,8.256
		C3.477,8.292,3.344,8.351,3.209,8.437C3.185,8.453,3.161,8.469,3.138,8.486c-0.005,0.002-0.01,0.005-0.014,0.009
		C3.12,8.498,3.116,8.501,3.112,8.504C3.069,8.536,3.028,8.57,2.989,8.606C2.984,8.61,2.979,8.615,2.976,8.619
		C2.938,8.654,2.902,8.692,2.869,8.731c-0.003,0.004-0.007,0.008-0.01,0.011c-0.034,0.04-0.065,0.083-0.095,0.126
		C2.759,8.876,2.754,8.884,2.75,8.893C2.722,8.936,2.695,8.979,2.672,9.024C2.668,9.033,2.664,9.042,2.659,9.051
		C2.637,9.098,2.615,9.145,2.598,9.194C2.595,9.2,2.594,9.205,2.592,9.211C2.575,9.257,2.56,9.306,2.547,9.354
		C2.545,9.361,2.543,9.37,2.542,9.376C2.534,9.414,2.526,9.451,2.519,9.489C2.518,9.501,2.517,9.513,2.516,9.524
		C2.514,9.541,2.513,9.556,2.511,9.57c-0.004,0.04-0.007,0.08-0.008,0.119c0,0.013-0.002,0.026-0.002,0.039v21.866
		c0,0.661,0.423,1.246,1.047,1.449l16.486,5.383c0.01,0.003,0.021,0.005,0.031,0.007c0.02,0.006,0.039,0.012,0.059,0.018
		c0.023,0.006,0.045,0.011,0.067,0.016c0.018,0.005,0.037,0.008,0.056,0.014c0.025,0.003,0.053,0.008,0.079,0.009
		c0.016,0.002,0.03,0.004,0.046,0.006c0.042,0.005,0.085,0.007,0.128,0.007c0.006,0,0.01,0,0.014,0
		c0.153-0.002,0.307-0.027,0.454-0.074l16.486-5.382c0.623-0.203,1.047-0.788,1.047-1.449V9.728
		C38.499,9.723,38.498,9.718,38.498,9.713z M18.988,34.876L5.525,30.483v-18.66c2.406,0.785,6.544,2.135,9.787,3.194l0.099,0.031
		c1.465,0.478,2.739,0.895,3.578,1.168L18.988,34.876L18.988,34.876z M20.499,13.505c-0.647-0.211-1.92-0.626-3.476-1.135
		l-0.155-0.051c-0.074-0.023-0.15-0.049-0.226-0.073l-0.287-0.093c-0.083-0.027-0.165-0.055-0.248-0.083L8.796,9.686l11.703-4.047
		l11.703,4.047L20.499,13.505z M35.474,30.483l-13.462,4.395v-18.66c0.368-0.121,0.82-0.269,1.335-0.437l0.179-0.06
		c0.072-0.022,0.145-0.046,0.219-0.069l0.027-0.01c0.145-0.047,0.29-0.094,0.439-0.143l10.477-3.42
		c0.082-0.026,0.161-0.053,0.239-0.078l0.124-0.042c0.146-0.047,0.287-0.093,0.423-0.137V30.483z"/>
	<ellipse fill="#3D3B40" cx="9.79" cy="18.931" rx="1.515" ry="2.46"/>
	<ellipse fill="#3D3B40" cx="14.458" cy="27.667" rx="1.515" ry="2.459"/>
	<ellipse fill="#3D3B40" cx="24.639" cy="29.668" rx="1.515" ry="2.459"/>
	<ellipse fill="#3D3B40" cx="28.742" cy="23.35" rx="1.516" ry="2.46"/>
	<ellipse fill="#3D3B40" cx="32.885" cy="17.074" rx="1.515" ry="2.46"/>
	<ellipse fill="#3D3B40" cx="20.597" cy="9.567" rx="1.999" ry="1.088"/>
</g>
</svg>
