<?xml version="1.0" encoding="utf-8"?>
<!-- Generator: Adobe Illustrator 16.0.0, SVG Export Plug-In . SVG Version: 6.00 Build 0)  -->
<!DOCTYPE svg PUBLIC "-//W3C//DTD SVG 1.1//EN" "http://www.w3.org/Graphics/SVG/1.1/DTD/svg11.dtd">
<svg version="1.1" id="Calque_1" xmlns="http://www.w3.org/2000/svg" xmlns:xlink="http://www.w3.org/1999/xlink" x="0px" y="0px"
	 width="41px" height="41px" viewBox="0 0 41 41" enable-background="new 0 0 41 41" xml:space="preserve">
<rect x="-79" y="-706.5" fill="none" width="320" height="1857"/>
<circle fill-rule="evenodd" clip-rule="evenodd" fill="#FAFAF8" cx="20.5" cy="20.5" r="20"/>
<rect x="-79" y="-706.5" fill="none" width="320" height="1857"/>
<rect x="-184.5" y="-706.5" fill="none" width="320" height="1857"/>
<rect x="-184.654" y="-706.658" fill="none" width="320" height="1857"/>
<rect x="-184.679" y="-706.253" fill="none" width="320" height="1857"/>
<rect x="-184.66" y="-706.66" fill="none" width="320" height="1857"/>
<rect x="-184.68" y="-706.254" fill="none" width="320" height="1857"/>
<g>
	<path fill-rule="evenodd" clip-rule="evenodd" fill="#FF7F00" d="M26.399,13.333c-0.603-0.008-1.114,0.524-1.112,1.156
		c0.003,0.62,0.51,1.144,1.104,1.141c0.598-0.003,1.1-0.524,1.101-1.145C27.494,13.865,26.997,13.34,26.399,13.333z"/>
	<path fill-rule="evenodd" clip-rule="evenodd" fill="#FF7F00" d="M31.685,20.479h-0.003c0-1.601,0.016-3.202-0.009-4.803
		c-0.009-0.552-0.048-1.124-0.201-1.647c-0.648-2.196-2.136-3.602-4.27-4.351c-0.786-0.277-1.613-0.353-2.441-0.355
		c-2.804-0.009-5.606-0.01-8.411-0.004c-0.463,0.001-0.934,0.019-1.391,0.089c-1.879,0.286-3.396,1.205-4.539,2.713
		c-0.822,1.084-1.104,2.35-1.104,3.688c-0.002,3.188-0.008,6.374,0.006,9.561c0.002,0.483,0.039,0.983,0.164,1.448
		c0.592,2.204,2.027,3.647,4.131,4.454c0.789,0.304,1.619,0.393,2.457,0.396c2.877,0.012,5.759,0.009,8.637,0.016
		c1.008,0.002,1.984-0.158,2.926-0.532c2.29-0.912,4.063-3.091,4.05-5.781C31.678,23.74,31.685,22.109,31.685,20.479z
		 M27.648,29.281c-0.891,0.518-1.841,0.738-2.863,0.734c-2.886-0.01-5.771-0.003-8.658-0.014c-0.654,0-1.301-0.084-1.928-0.297
		c-0.957-0.322-1.713-0.908-2.328-1.699c-0.648-0.831-0.908-1.771-0.895-2.814c0.018-1.563,0.006-3.128,0.006-4.69h-0.01
		c0-1.638-0.025-3.277,0.008-4.915c0.037-1.873,0.992-3.178,2.625-4.021c0.83-0.429,1.721-0.589,2.656-0.584
		c2.869,0.012,5.741,0.004,8.612,0.01c0.826,0.001,1.642,0.109,2.384,0.492c1.648,0.851,2.731,2.124,2.746,4.061
		c0.028,3.269,0.022,6.539,0.003,9.808C29.998,27.113,29.163,28.403,27.648,29.281z"/>
	<path fill-rule="evenodd" clip-rule="evenodd" fill="#FF7F00" d="M20.498,15.314c-2.881-0.001-5.248,2.325-5.252,5.162
		c-0.005,2.869,2.355,5.208,5.254,5.209c2.884,0.001,5.254-2.338,5.254-5.188C25.753,17.646,23.39,15.314,20.498,15.314z
		 M20.509,24.017c-1.976,0.007-3.592-1.574-3.597-3.514c-0.004-1.939,1.606-3.52,3.588-3.521c1.965-0.001,3.58,1.575,3.585,3.502
		C24.091,22.427,22.485,24.012,20.509,24.017z"/>
</g>
<rect x="-190.543" y="-700.64" fill="none" width="320" height="1857"/>
</svg>
