<?xml version="1.0" encoding="utf-8"?>
<!-- Generator: Adobe Illustrator 16.0.0, SVG Export Plug-In . SVG Version: 6.00 Build 0)  -->
<!DOCTYPE svg PUBLIC "-//W3C//DTD SVG 1.1//EN" "http://www.w3.org/Graphics/SVG/1.1/DTD/svg11.dtd">
<svg version="1.1" id="Calque_1" xmlns="http://www.w3.org/2000/svg" xmlns:xlink="http://www.w3.org/1999/xlink" x="0px" y="0px"
	 width="41px" height="41px" viewBox="0 0 41 41" enable-background="new 0 0 41 41" xml:space="preserve">
<rect x="-79" y="-706.5" fill="none" width="320" height="1857"/>
<circle fill-rule="evenodd" clip-rule="evenodd" fill="#FAFAF8" cx="20.5" cy="20.5" r="20"/>
<rect x="-79" y="-706.5" fill="none" width="320" height="1857"/>
<path fill-rule="evenodd" clip-rule="evenodd" fill="#FF7F00" d="M30.15,14.524c-0.76,0.327-1.52,0.531-2.279,0.613
	c0.857-0.515,1.438-1.241,1.74-2.18c-0.785,0.465-1.621,0.784-2.512,0.955c-0.783-0.833-1.746-1.249-2.889-1.249
	c-1.094,0-2.027,0.386-2.799,1.157c-0.772,0.771-1.158,1.704-1.158,2.798c0,0.294,0.033,0.596,0.099,0.906
	c-1.617-0.082-3.134-0.488-4.55-1.219c-1.417-0.73-2.619-1.704-3.607-2.921c-0.359,0.612-0.538,1.278-0.538,1.997
	c0,0.677,0.159,1.306,0.478,1.886s0.747,1.049,1.285,1.408c-0.637-0.024-1.232-0.192-1.787-0.502v0.049c0,0.955,0.3,1.794,0.9,2.517
	c0.6,0.722,1.357,1.177,2.271,1.365c-0.344,0.09-0.69,0.135-1.041,0.135c-0.229,0-0.479-0.02-0.747-0.061
	c0.253,0.793,0.718,1.443,1.396,1.953s1.445,0.773,2.303,0.791c-1.438,1.125-3.074,1.689-4.91,1.689
	c-0.352,0-0.67-0.016-0.955-0.049c1.836,1.184,3.861,1.775,6.074,1.775c1.404,0,2.723-0.223,3.955-0.668
	c1.232-0.445,2.287-1.041,3.16-1.787c0.873-0.748,1.627-1.607,2.26-2.578c0.633-0.973,1.104-1.986,1.414-3.043
	s0.465-2.116,0.465-3.178c0-0.229-0.004-0.4-0.012-0.515C28.941,16.006,29.604,15.324,30.15,14.524z"/>
</svg>
