<?xml version="1.0" encoding="utf-8"?>
<!-- Generator: Adobe Illustrator 16.0.0, SVG Export Plug-In . SVG Version: 6.00 Build 0)  -->
<!DOCTYPE svg PUBLIC "-//W3C//DTD SVG 1.1//EN" "http://www.w3.org/Graphics/SVG/1.1/DTD/svg11.dtd">
<svg version="1.1" id="Calque_1" xmlns="http://www.w3.org/2000/svg" xmlns:xlink="http://www.w3.org/1999/xlink" x="0px" y="0px"
	 width="16px" height="16px" viewBox="0 0 16 16" enable-background="new 0 0 16 16" xml:space="preserve">
<path fill-rule="evenodd" clip-rule="evenodd" fill="#FF7F00" d="M13.137,10.494c-0.669,0-1.281,0.238-1.758,0.635l-5.88-2.939
	c0.002-0.045,0.007-0.089,0.007-0.134c0-0.054-0.005-0.105-0.008-0.157l5.899-3.012c0.475,0.387,1.08,0.62,1.74,0.62
	c1.52,0,2.752-1.232,2.752-2.753S14.656,0,13.137,0c-1.521,0-2.753,1.232-2.753,2.753c0,0.053,0.005,0.104,0.008,0.157L4.492,5.922
	c-0.474-0.387-1.08-0.62-1.739-0.62C1.232,5.303,0,6.535,0,8.056s1.232,2.753,2.753,2.753c0.668,0,1.281-0.238,1.758-0.635
	l5.879,2.939c-0.002,0.045-0.006,0.089-0.006,0.134c0,1.521,1.232,2.753,2.753,2.753c1.52,0,2.752-1.232,2.752-2.753
	S14.656,10.494,13.137,10.494"/>
</svg>
