<?xml version="1.0" encoding="utf-8"?>
<!-- Generator: Adobe Illustrator 16.0.0, SVG Export Plug-In . SVG Version: 6.00 Build 0)  -->
<!DOCTYPE svg PUBLIC "-//W3C//DTD SVG 1.1//EN" "http://www.w3.org/Graphics/SVG/1.1/DTD/svg11.dtd">
<svg version="1.1" id="Calque_1" xmlns="http://www.w3.org/2000/svg" xmlns:xlink="http://www.w3.org/1999/xlink" x="0px" y="0px"
	 width="41px" height="41px" viewBox="0 0 41 41" enable-background="new 0 0 41 41" xml:space="preserve">
<circle fill="none" stroke="#000000" stroke-miterlimit="10" cx="20.5" cy="20.5" r="20"/>
<g>
	<path fill-rule="evenodd" clip-rule="evenodd" d="M12.949,19.178L9.721,18.75c-0.314-0.042-0.603,0.182-0.644,0.5
		s0.181,0.61,0.494,0.652l3.229,0.428c0.025,0.004,0.051,0.005,0.075,0.005c0.284,0,0.53-0.213,0.567-0.506
		C13.484,19.512,13.264,19.219,12.949,19.178z"/>
	<path fill-rule="evenodd" clip-rule="evenodd" d="M15.227,14.938c0.255-0.191,0.309-0.555,0.119-0.813l-1.939-2.651
		c-0.189-0.258-0.548-0.312-0.803-0.121c-0.254,0.191-0.308,0.555-0.119,0.813l1.94,2.651c0.112,0.154,0.286,0.235,0.461,0.235
		C15.004,15.052,15.124,15.015,15.227,14.938z"/>
	<path fill-rule="evenodd" clip-rule="evenodd" d="M20.498,12.484c0.317,0,0.574-0.26,0.574-0.581v-3.3
		c0-0.321-0.257-0.581-0.574-0.581c-0.316,0-0.573,0.26-0.573,0.581v3.3C19.925,12.224,20.182,12.484,20.498,12.484z"/>
	<path fill-rule="evenodd" clip-rule="evenodd" d="M31.279,18.75l-3.229,0.428c-0.313,0.041-0.535,0.334-0.494,0.651
		c0.038,0.293,0.284,0.506,0.568,0.506c0.024,0,0.05-0.001,0.075-0.005l3.229-0.428c0.313-0.042,0.535-0.334,0.494-0.652
		S31.594,18.707,31.279,18.75z"/>
	<path fill-rule="evenodd" clip-rule="evenodd" d="M28.396,11.353c-0.254-0.191-0.613-0.137-0.802,0.121l-1.94,2.651
		c-0.188,0.257-0.135,0.622,0.119,0.812c0.104,0.077,0.223,0.115,0.342,0.115c0.175,0,0.349-0.082,0.461-0.235l1.939-2.651
		C28.704,11.908,28.65,11.544,28.396,11.353z"/>
	<path fill-rule="evenodd" clip-rule="evenodd" d="M20.498,14.361c-3.175,0-5.758,2.616-5.761,5.833
		c-0.003,0.17-0.001,2.32,1.525,3.884c1.018,1.042,1.039,1.962,1.064,3.026c0.005,0.209,0.01,0.425,0.023,0.64
		c0.072,1.131,0.206,3.235,3.064,3.235h0.167c2.858,0,2.992-2.104,3.064-3.235c0.014-0.215,0.019-0.431,0.023-0.64
		c0.025-1.064,0.047-1.984,1.064-3.026c1.526-1.563,1.527-3.714,1.525-3.884C26.257,16.977,23.674,14.361,20.498,14.361z
		 M25.112,20.209c0.001,0.019,0.014,1.814-1.193,3.051c-1.338,1.37-1.37,2.727-1.396,3.815c-0.003,0.107-0.005,0.212-0.009,0.314
		h-2.779c-0.317,0-0.573,0.261-0.573,0.581c0,0.321,0.256,0.581,0.573,0.581h2.672c-0.152,0.8-0.546,1.265-1.825,1.265h-0.167
		c-1.696,0-1.835-0.816-1.92-2.147c-0.013-0.192-0.017-0.387-0.021-0.594c-0.005-0.218-0.011-0.447-0.026-0.685h2.674
		c0.316,0,0.573-0.26,0.573-0.581c0-0.32-0.257-0.581-0.573-0.581h-2.866c-0.182-0.633-0.523-1.299-1.177-1.969
		c-1.207-1.236-1.194-3.032-1.193-3.049v-0.012c0-2.579,2.069-4.676,4.613-4.676c2.545,0,4.614,2.098,4.614,4.676V20.209z"/>
</g>
</svg>
