<?xml version="1.0" encoding="utf-8"?>
<!-- Generator: Adobe Illustrator 16.0.0, SVG Export Plug-In . SVG Version: 6.00 Build 0)  -->
<!DOCTYPE svg PUBLIC "-//W3C//DTD SVG 1.1//EN" "http://www.w3.org/Graphics/SVG/1.1/DTD/svg11.dtd">
<svg version="1.1" id="Calque_1" xmlns="http://www.w3.org/2000/svg" xmlns:xlink="http://www.w3.org/1999/xlink" x="0px" y="0px"
	 width="48px" height="48px" viewBox="0 0 48 48" style="enable-background:new 0 0 48 48;" xml:space="preserve">
<style type="text/css">
<![CDATA[
	.st0{fill:#FF7F00;}
	.st1{fill-rule:evenodd;clip-rule:evenodd;fill:#FFFFFF;}
]]>
</style>
<circle class="st1" cx="24" cy="23.9" r="24"/>
<path class="st0" d="M16,19.6c0.4,0.4,1.2,0.4,1.6,0l5.4-5.3v22c0,0.6,0.4,1.1,1,1.1s1-0.5,1-1.1v-22l5.4,5.3c0.4,0.4,1.1,0.4,1.6,0
	s0.4-1.1,0-1.6l-7.2-7.2c-0.2-0.2-0.5-0.3-0.8-0.3s-0.6,0.1-0.8,0.3L16,18C15.6,18.4,15.6,19.1,16,19.6z"/>
</svg>
