<?xml version="1.0" encoding="utf-8"?>
<!-- Generator: Adobe Illustrator 16.0.0, SVG Export Plug-In . SVG Version: 6.00 Build 0)  -->
<!DOCTYPE svg PUBLIC "-//W3C//DTD SVG 1.1//EN" "http://www.w3.org/Graphics/SVG/1.1/DTD/svg11.dtd">
<svg version="1.1" id="Calque_1" xmlns="http://www.w3.org/2000/svg" xmlns:xlink="http://www.w3.org/1999/xlink" x="0px" y="0px"
	 width="44px" height="44px" viewBox="0 0 44 44" style="enable-background:new 0 0 44 44;" xml:space="preserve">
<style type="text/css">
<![CDATA[
	.st0{fill:#FF7F00;}
	.st1{fill:#FFFFFF;}
]]>
</style>
<circle class="st1" cx="22" cy="22" r="22"/>
<path class="st0" d="M14.7,18c0.4,0.4,1,0.4,1.4,0l4.9-4.9v20.1c0,0.6,0.4,1,1,1c0.6,0,1-0.4,1-1V13.1l4.9,4.9c0.4,0.4,1,0.4,1.4,0
	c0.4-0.4,0.4-1,0-1.4l-6.6-6.5c-0.2-0.2-0.5-0.3-0.7-0.3s-0.5,0.1-0.7,0.3l-6.6,6.6C14.3,17,14.3,17.6,14.7,18z"/>
</svg>
