<?xml version="1.0" encoding="utf-8"?>
<!-- Generator: Adobe Illustrator 16.0.0, SVG Export Plug-In . SVG Version: 6.00 Build 0)  -->
<!DOCTYPE svg PUBLIC "-//W3C//DTD SVG 1.1//EN" "http://www.w3.org/Graphics/SVG/1.1/DTD/svg11.dtd">
<svg version="1.1" id="Calque_1" xmlns="http://www.w3.org/2000/svg" xmlns:xlink="http://www.w3.org/1999/xlink" x="0px" y="0px"
	 width="41px" height="41px" viewBox="0 0 41 41" enable-background="new 0 0 41 41" xml:space="preserve">
<circle fill="#FFFFFF" cx="20.5" cy="20.5" r="20"/>
<path fill-rule="evenodd" clip-rule="evenodd" fill="#FF7F00" d="M23.915,15.48h5.613v-1.399h-5.613V15.48z M20.181,21.223
	c0.361,0.564,0.543,1.248,0.543,2.051c0,0.832-0.205,1.576-0.62,2.234c-0.264,0.436-0.592,0.804-0.985,1.1
	c-0.443,0.343-0.971,0.577-1.574,0.703c-0.605,0.126-1.262,0.189-1.967,0.189H9.3v-14h6.731c1.696,0.027,2.899,0.521,3.608,1.491
	c0.428,0.595,0.639,1.308,0.639,2.138c0,0.855-0.214,1.54-0.645,2.061c-0.238,0.292-0.593,0.558-1.062,0.797
	C19.283,20.248,19.821,20.658,20.181,21.223z M12.515,19.02h2.949c0.606,0,1.096-0.116,1.473-0.348
	c0.378-0.23,0.564-0.641,0.564-1.23c0-0.652-0.248-1.084-0.748-1.292c-0.43-0.144-0.979-0.22-1.645-0.22h-2.594V19.02z
	 M17.787,23.074c0-0.728-0.295-1.229-0.887-1.5c-0.33-0.153-0.797-0.231-1.394-0.237h-2.991v3.731h2.945
	c0.604,0,1.073-0.079,1.411-0.245C17.482,24.518,17.787,23.937,17.787,23.074z M31.61,20.797c0.068,0.458,0.099,1.122,0.087,1.991
	h-7.269c0.04,1.007,0.387,1.713,1.043,2.115c0.396,0.253,0.876,0.378,1.438,0.378c0.593,0,1.077-0.152,1.448-0.461
	c0.203-0.164,0.382-0.396,0.537-0.688h2.664c-0.07,0.596-0.392,1.199-0.968,1.813c-0.893,0.974-2.146,1.463-3.755,1.463
	c-1.328,0-2.5-0.412-3.517-1.233c-1.014-0.824-1.521-2.162-1.521-4.018c0-1.739,0.456-3.071,1.373-3.998
	c0.92-0.929,2.108-1.391,3.571-1.391c0.868,0,1.65,0.155,2.348,0.469s1.271,0.807,1.724,1.484
	C31.225,19.32,31.488,20.01,31.61,20.797z M28.988,21.059c-0.049-0.697-0.28-1.225-0.698-1.586
	c-0.412-0.361-0.929-0.543-1.547-0.543c-0.67,0-1.188,0.193-1.557,0.576c-0.37,0.38-0.602,0.896-0.695,1.553H28.988z"/>
</svg>
