<?xml version="1.0" encoding="utf-8"?>
<!-- Generator: Adobe Illustrator 16.0.0, SVG Export Plug-In . SVG Version: 6.00 Build 0)  -->
<!DOCTYPE svg PUBLIC "-//W3C//DTD SVG 1.1//EN" "http://www.w3.org/Graphics/SVG/1.1/DTD/svg11.dtd">
<svg version="1.1" id="Calque_1" xmlns="http://www.w3.org/2000/svg" xmlns:xlink="http://www.w3.org/1999/xlink" x="0px" y="0px"
	 width="48px" height="48px" viewBox="0 0 48 48" enable-background="new 0 0 48 48" xml:space="preserve">
<path fill="#3D3B40" d="M23.971,48C10.714,47.98-0.035,37.23,0,23.931C0.036,10.701,10.772-0.027,24.055,0
	C37.3,0.027,48.048,10.784,48,24.093C47.952,37.305,37.234,48.009,23.971,48"/>
<path fill="#FFFFFF" d="M28.1,17.977h6.735v-1.681H28.1V17.977z M23.617,24.868c0.434,0.677,0.651,1.498,0.651,2.46
	c0,0.998-0.245,1.891-0.743,2.682c-0.316,0.521-0.711,0.963-1.184,1.318c-0.531,0.412-1.164,0.693-1.889,0.844
	c-0.726,0.152-1.514,0.229-2.36,0.229H10.56V15.6h8.078c2.035,0.033,3.479,0.625,4.33,1.789c0.512,0.714,0.766,1.569,0.766,2.565
	c0,1.027-0.256,1.849-0.772,2.473c-0.287,0.351-0.712,0.67-1.274,0.957C22.539,23.698,23.185,24.19,23.617,24.868z M14.417,22.224
	h3.539c0.729,0,1.315-0.14,1.768-0.418c0.453-0.276,0.678-0.769,0.678-1.477c0-0.782-0.299-1.301-0.898-1.55
	c-0.514-0.173-1.174-0.264-1.973-0.264h-3.113L14.417,22.224L14.417,22.224z M20.744,27.088c0-0.873-0.354-1.475-1.062-1.799
	c-0.397-0.184-0.957-0.277-1.674-0.285h-3.59v4.479h3.535c0.725,0,1.287-0.096,1.693-0.295
	C20.377,28.822,20.744,28.123,20.744,27.088z M37.333,24.357c0.081,0.549,0.118,1.346,0.104,2.389h-8.725
	c0.051,1.207,0.464,2.055,1.252,2.539c0.477,0.303,1.053,0.451,1.729,0.451c0.711,0,1.291-0.182,1.738-0.551
	c0.241-0.199,0.457-0.479,0.645-0.828h3.195c-0.084,0.717-0.471,1.438-1.16,2.176c-1.071,1.17-2.575,1.758-4.506,1.758
	c-1.594,0-3-0.496-4.223-1.482c-1.217-0.988-1.824-2.594-1.824-4.818c0-2.087,0.549-3.685,1.646-4.797
	c1.104-1.114,2.529-1.668,4.286-1.668c1.041,0,1.979,0.186,2.815,0.562s1.524,0.968,2.068,1.781
	C36.869,22.584,37.186,23.412,37.333,24.357z M34.186,24.67c-0.058-0.837-0.336-1.47-0.836-1.903
	c-0.496-0.434-1.115-0.651-1.855-0.651c-0.807,0-1.428,0.232-1.868,0.691c-0.444,0.455-0.724,1.076-0.836,1.863H34.186z"/>
</svg>
