<?xml version="1.0" encoding="utf-8"?>
<!-- Generator: Adobe Illustrator 16.0.0, SVG Export Plug-In . SVG Version: 6.00 Build 0)  -->
<!DOCTYPE svg PUBLIC "-//W3C//DTD SVG 1.1//EN" "http://www.w3.org/Graphics/SVG/1.1/DTD/svg11.dtd">
<svg version="1.1" id="Calque_1" xmlns="http://www.w3.org/2000/svg" xmlns:xlink="http://www.w3.org/1999/xlink" x="0px" y="0px"
	 width="41px" height="41px" viewBox="0 0 41 41" enable-background="new 0 0 41 41" xml:space="preserve">
<path fill="none" stroke="#3D3B40" stroke-miterlimit="10" d="M20.475,40.5C9.429,40.484,0.471,31.525,0.5,20.443
	C0.529,9.417,9.477,0.477,20.546,0.5C31.583,0.523,40.539,9.486,40.5,20.578C40.46,31.586,31.528,40.508,20.475,40.5"/>
<g>
	<path fill-rule="evenodd" clip-rule="evenodd" fill="#3D3B40" d="M24.01,23.98h-0.598c-0.331,0-0.529,0.198-0.529,0.53
		c0,0.331,0.198,0.53,0.529,0.53h0.598c0.33,0,0.529-0.199,0.529-0.53C24.539,24.179,24.274,23.98,24.01,23.98z"/>
	<path fill-rule="evenodd" clip-rule="evenodd" fill="#3D3B40" d="M22.021,24.511c0-0.332-0.199-0.53-0.531-0.53h-4.572
		c-0.332,0-0.531,0.198-0.531,0.53c0,0.331,0.199,0.53,0.531,0.53h4.572C21.822,25.041,22.021,24.842,22.021,24.511z"/>
	<circle fill-rule="evenodd" clip-rule="evenodd" fill="#3D3B40" cx="21.955" cy="27.36" r="0.663"/>
	<circle fill-rule="evenodd" clip-rule="evenodd" fill="#3D3B40" cx="19.768" cy="28.62" r="0.663"/>
	<circle fill-rule="evenodd" clip-rule="evenodd" fill="#3D3B40" cx="20.231" cy="25.902" r="0.53"/>
	<path fill-rule="evenodd" clip-rule="evenodd" fill="#3D3B40" d="M28.449,27.691l-5.566-8.814v-6.628h0.198
		c0.663,0,1.193-0.53,1.193-1.193v-0.53c0-0.662-0.53-1.192-1.193-1.192h-5.169c-0.663,0-1.193,0.53-1.193,1.192v0.53
		c0,0.663,0.53,1.193,1.193,1.193h0.198v6.628l-5.567,8.881c-0.397,0.86-0.397,1.854,0.133,2.651
		c0.464,0.795,1.392,1.258,2.32,1.258h11.067c0.929,0,1.79-0.463,2.319-1.258C28.848,29.612,28.848,28.618,28.449,27.691z
		 M27.389,29.812c-0.33,0.465-0.861,0.795-1.391,0.795h-4.109c0-0.529-0.465-0.928-0.994-0.928c-0.531,0-0.994,0.398-0.994,0.928
		h-4.904c-0.598,0-1.127-0.33-1.393-0.795c-0.331-0.463-0.331-1.127-0.133-1.59l5.568-8.881c0.065-0.133,0.132-0.133,0.132-0.266
		v-7.29c0-0.332-0.198-0.53-0.53-0.53h-0.729c-0.066,0-0.133-0.066-0.133-0.133v-0.597c0-0.066,0.066-0.132,0.133-0.132h5.169
		c0.066,0,0.133,0.065,0.133,0.132v0.53c0,0.066-0.066,0.133-0.133,0.133h-0.729c-0.33,0-0.529,0.199-0.529,0.53v7.291
		c0,0.132,0.066,0.198,0.133,0.265l5.566,8.881C27.721,28.751,27.721,29.349,27.389,29.812z"/>
</g>
</svg>
