<?xml version="1.0" encoding="utf-8"?>
<!-- Generator: Adobe Illustrator 16.0.0, SVG Export Plug-In . SVG Version: 6.00 Build 0)  -->
<!DOCTYPE svg PUBLIC "-//W3C//DTD SVG 1.1//EN" "http://www.w3.org/Graphics/SVG/1.1/DTD/svg11.dtd">
<svg version="1.1" id="Calque_1" xmlns="http://www.w3.org/2000/svg" xmlns:xlink="http://www.w3.org/1999/xlink" x="0px" y="0px"
	 width="41px" height="41px" viewBox="0 0 41 41" enable-background="new 0 0 41 41" xml:space="preserve">
<circle fill="none" stroke="#000000" stroke-miterlimit="10" cx="20.5" cy="20.5" r="20"/>
<g>
	<path fill-rule="evenodd" clip-rule="evenodd" d="M28.422,9.316H12.577c-0.257,0-0.466,0.209-0.466,0.466v21.437
		c0,0.256,0.209,0.465,0.466,0.465h15.845c0.256,0,0.467-0.209,0.467-0.465V9.782C28.889,9.525,28.678,9.316,28.422,9.316z
		 M27.957,30.752H13.043V10.248h14.914V30.752z"/>
	<path fill-rule="evenodd" clip-rule="evenodd" d="M15.373,18.238c0,0.256,0.209,0.467,0.467,0.467h9.32
		c0.256,0,0.467-0.211,0.467-0.467s-0.211-0.466-0.467-0.466h-9.32C15.582,17.772,15.373,17.982,15.373,18.238z"/>
	<path fill-rule="evenodd" clip-rule="evenodd" d="M15.84,20.568h9.32c0.256,0,0.467-0.209,0.467-0.466s-0.211-0.466-0.467-0.466
		h-9.32c-0.258,0-0.467,0.209-0.467,0.466S15.582,20.568,15.84,20.568z"/>
	<path fill-rule="evenodd" clip-rule="evenodd" d="M25.627,21.967c0-0.258-0.211-0.467-0.467-0.467h-9.32
		c-0.258,0-0.467,0.209-0.467,0.467c0,0.256,0.209,0.465,0.467,0.465h9.32C25.416,22.432,25.627,22.223,25.627,21.967z"/>
	<polygon fill-rule="evenodd" clip-rule="evenodd" points="17.703,13.112 16.771,14.045 16.771,14.977 17.703,14.977 	"/>
	<polygon fill-rule="evenodd" clip-rule="evenodd" points="15.84,13.112 14.907,14.045 14.907,14.977 15.84,14.977 	"/>
	<polygon fill-rule="evenodd" clip-rule="evenodd" points="23.297,28.023 24.229,27.092 24.229,26.16 23.297,26.16 	"/>
	<polygon fill-rule="evenodd" clip-rule="evenodd" points="25.16,28.023 26.092,27.092 26.092,26.16 25.16,26.16 	"/>
</g>
</svg>
