<?xml version="1.0" encoding="utf-8"?>
<!-- Generator: Adobe Illustrator 16.0.0, SVG Export Plug-In . SVG Version: 6.00 Build 0)  -->
<!DOCTYPE svg PUBLIC "-//W3C//DTD SVG 1.1//EN" "http://www.w3.org/Graphics/SVG/1.1/DTD/svg11.dtd">
<svg version="1.1" id="Calque_1" xmlns="http://www.w3.org/2000/svg" xmlns:xlink="http://www.w3.org/1999/xlink" x="0px" y="0px"
	 width="41px" height="41px" viewBox="0 0 41 41" enable-background="new 0 0 41 41" xml:space="preserve">
<path fill="none" stroke="#3D3B40" stroke-miterlimit="10" d="M20.475,40.5C9.429,40.484,0.471,31.525,0.5,20.443
	C0.529,9.417,9.477,0.477,20.546,0.5C31.583,0.523,40.539,9.486,40.5,20.578C40.46,31.586,31.528,40.508,20.475,40.5"/>
<path fill-rule="evenodd" clip-rule="evenodd" fill="#3D3B40" d="M20.5,9.521c-6.053,0-10.979,4.926-10.979,10.979
	c0,6.054,4.926,10.978,10.979,10.978c6.055,0,10.979-4.924,10.979-10.978C31.479,14.447,26.555,9.521,20.5,9.521z M24.48,11.4
	c1.855,0.815,3.416,2.181,4.475,3.891l-0.293,0.507h-3.35l-1.686-2.92L24.48,11.4z M20.5,10.565c1.018,0,2,0.155,2.924,0.44
	l-0.76,1.316h-3.35l-0.887-1.537C19.095,10.642,19.789,10.565,20.5,10.565z M17.32,11.091l1.031,1.787l-1.686,2.92h-3.371
	l-0.73-1.266C13.755,12.952,15.409,11.739,17.32,11.091z M11.505,24.711c-0.602-1.279-0.939-2.705-0.939-4.21
	c0-0.04,0.002-0.078,0.002-0.117h0.064l1.686,2.919L11.505,24.711z M13.294,22.748H13.28l-1.685-2.92l1.686-2.92h3.371l1.687,2.92
	l-1.687,2.92H13.294z M20.5,30.434c-0.958,0-1.885-0.139-2.762-0.393l1.562-2.707h3.35l1.408,2.439
	C22.953,30.199,21.754,30.434,20.5,30.434z M22.65,26.223H19.3l-1.687-2.92l1.687-2.919h3.35l1.686,2.919L22.65,26.223z
	 M25.297,22.748l-1.678-2.908l1.693-2.933h3.35l1.686,2.92l-1.686,2.918h-3.365V22.748z M29.885,23.754l-0.26-0.451l0.672-1.166
	C30.205,22.693,30.066,23.232,29.885,23.754z"/>
</svg>
