<?xml version="1.0" encoding="utf-8"?>
<!-- Generator: Adobe Illustrator 16.0.0, SVG Export Plug-In . SVG Version: 6.00 Build 0)  -->
<!DOCTYPE svg PUBLIC "-//W3C//DTD SVG 1.1//EN" "http://www.w3.org/Graphics/SVG/1.1/DTD/svg11.dtd">
<svg version="1.1" id="Calque_1" xmlns="http://www.w3.org/2000/svg" xmlns:xlink="http://www.w3.org/1999/xlink" x="0px" y="0px"
	 width="48px" height="48px" viewBox="0 0 48 48" enable-background="new 0 0 48 48" xml:space="preserve">
<path fill="#3D3B40" d="M23.971,48C10.714,47.98-0.035,37.23,0,23.931C0.036,10.701,10.772-0.027,24.055,0
	C37.3,0.027,48.048,10.784,48,24.093C47.952,37.305,37.234,48.009,23.971,48"/>
<path fill="#FFFFFF" d="M14.718,32.4h3.986V19.575h-3.986V32.4z M16.711,17.822c-1.277,0-2.312-1.036-2.312-2.312
	c0-1.275,1.034-2.31,2.312-2.31c1.274,0,2.31,1.035,2.31,2.31C19.021,16.786,17.986,17.822,16.711,17.822z M33.633,32.4H29.65
	v-6.237c0-1.487-0.027-3.4-2.071-3.4c-2.074,0-2.394,1.62-2.394,3.293V32.4h-3.982V19.575h3.822v1.752h0.055
	c0.531-1.008,1.833-2.071,3.771-2.071c4.035,0,4.78,2.656,4.78,6.109L33.633,32.4L33.633,32.4z"/>
</svg>
