<?xml version="1.0" encoding="utf-8"?>
<!-- Generator: Adobe Illustrator 16.0.0, SVG Export Plug-In . SVG Version: 6.00 Build 0)  -->
<!DOCTYPE svg PUBLIC "-//W3C//DTD SVG 1.1//EN" "http://www.w3.org/Graphics/SVG/1.1/DTD/svg11.dtd">
<svg version="1.1" id="Calque_1" xmlns="http://www.w3.org/2000/svg" xmlns:xlink="http://www.w3.org/1999/xlink" x="0px" y="0px"
	 width="41px" height="41px" viewBox="0 0 41 41" enable-background="new 0 0 41 41" xml:space="preserve">
<circle fill="#FFFFFF" cx="20.5" cy="20.5" r="20"/>
<path fill-rule="evenodd" clip-rule="evenodd" fill="#FF7F00" d="M12.751,27.5h3.321V16.812h-3.321V27.5z M14.412,15.352
	c-1.064,0-1.926-0.863-1.926-1.926c0-1.062,0.861-1.925,1.926-1.925c1.062,0,1.926,0.863,1.926,1.925
	C16.338,14.489,15.475,15.352,14.412,15.352z M28.514,27.5h-3.318v-5.197c0-1.239-0.023-2.834-1.727-2.834
	c-1.729,0-1.994,1.351-1.994,2.744V27.5h-3.318V16.812h3.186v1.461h0.045c0.443-0.841,1.527-1.727,3.143-1.727
	c3.363,0,3.984,2.214,3.984,5.091V27.5z"/>
</svg>
