<?xml version="1.0" encoding="utf-8"?>
<!-- Generator: Adobe Illustrator 16.0.0, SVG Export Plug-In . SVG Version: 6.00 Build 0)  -->
<!DOCTYPE svg PUBLIC "-//W3C//DTD SVG 1.1//EN" "http://www.w3.org/Graphics/SVG/1.1/DTD/svg11.dtd">
<svg version="1.1" id="Calque_1" xmlns="http://www.w3.org/2000/svg" xmlns:xlink="http://www.w3.org/1999/xlink" x="0px" y="0px"
	 width="41px" height="41px" viewBox="0 0 41 41" style="enable-background:new 0 0 41 41;" xml:space="preserve">
<style type="text/css">
<![CDATA[
	.st0{fill:#3D3B40;stroke:#FAF9F7;stroke-miterlimit:10;}
	.st1{fill-rule:evenodd;clip-rule:evenodd;fill:#FFFFFF;}
]]>
</style>
<circle class="st0" cx="20.5" cy="20.5" r="20"/>
<path class="st1" d="M26.9,15c-0.7-3.3-3.9-5.4-7.4-4.9c-4.2,0.6-6.6,5-4.8,8.8c1.5,3.1,3,6.3,4.6,9.4c0.4,0.9,0.9,1.8,1.3,2.7
	c0.1-0.1,0.1-0.2,0.2-0.3c1.9-3.9,3.8-7.9,5.7-11.8C27,17.6,27.2,16.3,26.9,15z M20.5,19c-1.4,0-2.5-1.1-2.5-2.5
	c0-1.4,1.1-2.5,2.5-2.5c1.4,0,2.5,1.1,2.5,2.5C23,17.9,21.9,19,20.5,19z"/>
</svg>
