<?xml version="1.0" encoding="utf-8"?>
<!-- Generator: Adobe Illustrator 16.0.0, SVG Export Plug-In . SVG Version: 6.00 Build 0)  -->
<!DOCTYPE svg PUBLIC "-//W3C//DTD SVG 1.1//EN" "http://www.w3.org/Graphics/SVG/1.1/DTD/svg11.dtd">
<svg version="1.1" id="Calque_1" xmlns="http://www.w3.org/2000/svg" xmlns:xlink="http://www.w3.org/1999/xlink" x="0px" y="0px"
	 width="41px" height="41px" viewBox="0 0 41 41" style="enable-background:new 0 0 41 41;" xml:space="preserve">
<style type="text/css">
<![CDATA[
	.st0{fill:#FFFFFF;}
	.st1{fill:#3D3B40;stroke:#FAF9F7;stroke-miterlimit:10;}
]]>
</style>
<circle class="st1" cx="20.5" cy="20.5" r="20"/>
<g>
	<path class="st0" d="M20.7,23.2c-0.1,0-0.1,0.1-0.2,0.1c-0.5-0.4-0.9-0.7-1.4-1.1c-3-2.4-6-4.7-9-7.1c-0.1,0-0.1-0.1-0.2-0.1v11.6
		c0.1,0.4,0.2,0.7,0.5,1c0.4,0.3,0.8,0.4,1.3,0.4c3.1,0,6.3,0,9.4,0c2.7,0,5.3,0,8,0c0.5,0,0.9-0.1,1.3-0.4c0.3-0.3,0.4-0.6,0.5-1
		V15c-0.8,0.6-1.5,1.2-2.3,1.8C26.1,18.9,23.4,21,20.7,23.2z"/>
	<path class="st0" d="M31,13.7c-0.4-0.5-0.9-0.7-1.5-0.7c-6,0-12,0-17.9,0c-0.2,0-0.3,0-0.5,0c-0.4,0.1-0.8,0.3-1.1,0.6
		c3.5,2.8,7,5.5,10.5,8.3C24,19.2,27.5,16.5,31,13.7z"/>
</g>
</svg>
