<?xml version="1.0" encoding="utf-8"?>
<!-- Generator: Adobe Illustrator 16.0.0, SVG Export Plug-In . SVG Version: 6.00 Build 0)  -->
<!DOCTYPE svg PUBLIC "-//W3C//DTD SVG 1.1//EN" "http://www.w3.org/Graphics/SVG/1.1/DTD/svg11.dtd">
<svg version="1.1" id="Calque_1" xmlns="http://www.w3.org/2000/svg" xmlns:xlink="http://www.w3.org/1999/xlink" x="0px" y="0px"
	 width="48px" height="48px" viewBox="0 0 48 48" enable-background="new 0 0 48 48" xml:space="preserve">
<path fill-rule="evenodd" clip-rule="evenodd" fill="#3D3B40" d="M23.971,48C10.714,47.98-0.035,37.23,0,23.931
	C0.036,10.701,10.772-0.027,24.055,0C37.3,0.027,48.048,10.784,48,24.093C47.952,37.304,37.234,48.009,23.971,48"/>
<path fill-rule="evenodd" clip-rule="evenodd" fill="#FFFFFF" d="M20.123,35.197c-0.925-0.238-1.63-0.596-1.63-0.596
	c-0.039-0.963-0.008-2.121,0.241-3.17c0.265-1.119,1.776-7.519,1.776-7.519s-0.441-0.88-0.441-2.184
	c0-2.044,1.185-3.572,2.661-3.572c1.255,0,1.86,0.942,1.86,2.072c0,1.261-0.803,3.149-1.218,4.898
	c-0.345,1.463,0.733,2.658,2.177,2.658c2.615,0,4.377-3.359,4.377-7.337c0-3.025-2.037-5.289-5.742-5.289
	c-4.186,0-6.795,3.122-6.795,6.609c0,1.201,0.355,2.05,0.91,2.706c0.256,0.302,0.291,0.423,0.199,0.77
	c-0.066,0.254-0.219,0.865-0.281,1.107c-0.092,0.35-0.375,0.475-0.691,0.346c-1.929-0.787-2.826-2.9-2.826-5.274
	c0-3.919,3.307-8.62,9.863-8.62c5.27,0,8.736,3.813,8.736,7.904c0,5.414-3.01,9.458-7.446,9.458c-1.49,0-2.892-0.805-3.37-1.719
	c0,0-0.803,3.18-0.973,3.791C21.218,33.303,20.646,34.367,20.123,35.197"/>
</svg>
