<?xml version="1.0" encoding="utf-8"?>
<!-- Generator: Adobe Illustrator 16.0.0, SVG Export Plug-In . SVG Version: 6.00 Build 0)  -->
<!DOCTYPE svg PUBLIC "-//W3C//DTD SVG 1.1//EN" "http://www.w3.org/Graphics/SVG/1.1/DTD/svg11.dtd">
<svg version="1.1" id="Calque_1" xmlns="http://www.w3.org/2000/svg" xmlns:xlink="http://www.w3.org/1999/xlink" x="0px" y="0px"
	 width="41px" height="41px" viewBox="0 0 41 41" enable-background="new 0 0 41 41" xml:space="preserve">
<circle fill="none" stroke="#000000" stroke-miterlimit="10" cx="20.5" cy="20.5" r="20"/>
<g>
	<path fill-rule="evenodd" clip-rule="evenodd" d="M15.521,16.767c-0.879,0-1.727,0.346-2.355,0.974c-0.313,0.314-0.313,0.817,0,1.1
		c0.314,0.314,0.817,0.314,1.1,0c0.346-0.346,0.785-0.502,1.225-0.502c0.44,0,0.912,0.188,1.226,0.502
		c0.69,0.691,0.69,1.791,0,2.482c-0.313,0.314-0.313,0.816,0,1.1c0.157,0.156,0.345,0.219,0.565,0.219
		c0.22,0,0.408-0.062,0.565-0.219c1.288-1.289,1.288-3.393,0-4.712C17.25,17.113,16.402,16.767,15.521,16.767z"/>
	<path fill-rule="evenodd" clip-rule="evenodd" d="M33.236,19.563c-0.596-0.597-1.318-0.974-2.104-1.162
		c-0.504-1.759-1.885-3.141-3.645-3.612c-0.062-0.031-0.156-0.031-0.219-0.031c-0.816-1.602-2.451-2.701-4.367-2.701
		c-1.412,0-2.701,0.597-3.612,1.633c-0.282-0.188-0.597-0.345-0.91-0.502c-1.445-0.597-3.078-0.597-4.523,0
		c-0.691,0.282-1.318,0.723-1.854,1.256c-0.533,0.534-0.941,1.162-1.256,1.854c-0.22,0.503-0.346,1.005-0.408,1.539
		c-2.168,0.346-3.832,2.231-3.832,4.522c0,2.514,2.041,4.586,4.586,4.586h19.096c1.162,0,2.23-0.439,3.047-1.256
		s1.256-1.916,1.256-3.047S34.053,20.379,33.236,19.563z M32.137,24.557c-0.533,0.535-1.225,0.816-1.947,0.816h-1.664
		c0.219-1.1,1.068-1.885,2.072-1.885c0.439,0,0.785-0.344,0.785-0.785c0-0.439-0.346-0.785-0.785-0.785
		c-1.854,0-3.391,1.508-3.643,3.455h-1.729c0.252-0.439,0.41-0.973,0.41-1.539c0-0.941-0.41-1.758-1.068-2.324
		c0.596-0.564,0.973-1.35,0.973-2.198c0-0.817-0.314-1.571-0.879-2.136c-0.314-0.314-0.816-0.314-1.1,0
		c-0.314,0.313-0.314,0.816,0,1.099c0.283,0.283,0.408,0.629,0.408,1.005c0,0.787-0.66,1.445-1.445,1.445s-1.443-0.658-1.443-1.445
		c0-0.439-0.346-0.785-0.786-0.785c-0.44,0-0.785,0.346-0.785,0.785c0,1.666,1.35,3.015,3.014,3.015c0.85,0,1.539,0.691,1.539,1.539
		s-0.689,1.539-1.539,1.539h-7.821c-1.036,0-1.885-0.848-1.885-1.885c0-1.035,0.849-1.883,1.885-1.883
		c0.44,0,0.785-0.346,0.785-0.787c0-0.439-0.345-0.785-0.785-0.785c-1.193,0-2.229,0.598-2.857,1.508
		c-0.408-0.281-0.88-0.471-1.414-0.471c-0.439,0-0.785,0.346-0.785,0.785s0.346,0.785,0.785,0.785s0.816,0.377,0.816,0.816
		c0,0.691,0.221,1.352,0.566,1.885h-0.723c-1.665,0-3.016-1.35-3.016-3.016c0-1.664,1.351-3.014,3.016-3.014
		c0.439,0,0.785-0.346,0.785-0.785c0-0.565,0.125-1.131,0.346-1.665c0.22-0.503,0.533-0.974,0.91-1.351s0.849-0.691,1.352-0.911
		c1.036-0.439,2.261-0.439,3.297,0c0.503,0.22,0.975,0.534,1.352,0.911s0.69,0.848,0.91,1.351c0.157,0.408,0.629,0.597,1.038,0.408
		c0.408-0.157,0.596-0.628,0.408-1.036c-0.252-0.565-0.566-1.1-1.006-1.57c0.629-0.691,1.508-1.1,2.45-1.1
		c1.791,0,3.268,1.476,3.268,3.267c0,0.439,0.346,0.785,0.785,0.785s0.785-0.346,0.785-0.785c0-0.126,0-0.22-0.031-0.346
		c0.785,0.377,1.381,1.005,1.727,1.79c-0.879,0.157-1.695,0.565-2.324,1.193c-0.312,0.314-0.312,0.817,0,1.1
		c0.314,0.314,0.816,0.314,1.1,0c0.533-0.535,1.225-0.817,1.947-0.817s1.414,0.282,1.947,0.817c0.535,0.533,0.816,1.225,0.816,1.947
		S32.641,24.055,32.137,24.557z"/>
</g>
</svg>
