<?xml version="1.0" encoding="utf-8"?>
<!-- Generator: Adobe Illustrator 16.0.0, SVG Export Plug-In . SVG Version: 6.00 Build 0)  -->
<!DOCTYPE svg PUBLIC "-//W3C//DTD SVG 1.1//EN" "http://www.w3.org/Graphics/SVG/1.1/DTD/svg11.dtd">
<svg version="1.1" id="Calque_1" xmlns="http://www.w3.org/2000/svg" xmlns:xlink="http://www.w3.org/1999/xlink" x="0px" y="0px"
	 width="41px" height="41px" viewBox="0 0 41 41" enable-background="new 0 0 41 41" xml:space="preserve">
<rect x="-79" y="-706.5" fill="none" width="320" height="1857"/>
<circle fill-rule="evenodd" clip-rule="evenodd" fill="#FAFAF8" cx="20.5" cy="20.5" r="20"/>
<rect x="-79" y="-706.5" fill="none" width="320" height="1857"/>
<path fill-rule="evenodd" clip-rule="evenodd" fill="#FF7F00" d="M25.972,17.083c-0.062,0.666-0.109,1.299-0.182,1.929
	c-0.062,0.536-0.18,1.066-0.225,1.604c-0.024,0.302-0.164,0.373-0.429,0.373c-0.737-0.003-1.476,0-2.212,0
	c-0.619,0.003-0.619,0.003-0.62,0.627c0,3.099,0.001,6.196,0,9.294c0,0.6-0.001,0.602-0.612,0.603c-1.249,0.002-2.496,0.002-3.744,0
	c-0.588-0.001-0.598-0.008-0.598-0.578c-0.001-3.111,0-6.223,0-9.334c-0.001-0.593-0.001-0.593-0.609-0.594
	c-0.438-0.002-0.879-0.008-1.318,0.001c-0.275,0.004-0.408-0.078-0.404-0.383c0.015-1.069,0.013-2.14,0.001-3.209
	c-0.003-0.265,0.083-0.373,0.364-0.365c0.51,0.016,1.021-0.015,1.531,0.011c0.341,0.018,0.439-0.102,0.441-0.425
	c0.002-1.097,0.007-2.193,0.054-3.289c0.085-1.902,1.466-3.472,3.415-3.679c1.6-0.171,3.223-0.128,4.834-0.181
	c0.235-0.008,0.322,0.101,0.322,0.33c-0.007,1.152-0.008,2.306,0,3.458c0.004,0.264-0.119,0.334-0.361,0.332
	c-0.738-0.006-1.475-0.006-2.212,0.001c-0.659,0.006-1.085,0.426-1.089,1.069c-0.006,0.651,0.018,1.306-0.01,1.958
	c-0.013,0.348,0.127,0.422,0.447,0.416c0.979-0.015,1.956-0.004,2.936-0.003C25.761,17.049,25.831,17.065,25.972,17.083"/>
</svg>
